<svg width="1280" height="501" viewBox="0 0 1280 501" fill="none" xmlns="http://www.w3.org/2000/svg">
<rect width="1278.73" height="500.317" fill="#97E8CC" fill-opacity="0.44"/>
<path d="M696.508 253.968C612.041 310.656 496.508 499.047 496.508 499.047H1278.73V165.714C1038.1 165.714 1153.15 347.01 1029.21 372.063C894.07 399.379 810.986 177.139 696.508 253.968Z" fill="#2FCE98" fill-opacity="0.39"/>
<path d="M606.984 306.667C532.182 330.294 549.206 499.048 549.206 499.048H1280V362.54C1280 362.54 1227.94 413.968 1145.4 404.444C1062.86 394.921 1081.9 92.6984 949.841 121.905C815.184 151.685 841.27 422.857 765.079 422.857C721.905 422.857 680.047 283.588 606.984 306.667Z" fill="#F5CFA2"/>
</svg>
