<svg width="1280" height="668" viewBox="0 0 1280 668" fill="none" xmlns="http://www.w3.org/2000/svg">
<rect width="1278.73" height="668" fill="#97E8CC" fill-opacity="0.01"/>
<path d="M534.682 392.491C426.699 455.755 279 666 279 666H1279V294C971.37 294 1118.46 496.326 960.006 524.286C787.247 554.77 681.032 306.75 534.682 392.491Z" fill="#2FCE98" fill-opacity="0.01"/>
<path d="M402.504 440.195C304.976 467.927 327.172 666 327.172 666H1280V505.775C1280 505.775 1212.12 566.139 1104.5 554.961C996.883 543.782 1021.72 189.052 849.53 223.333C673.961 258.286 707.972 576.572 608.633 576.572C552.341 576.572 497.765 413.107 402.504 440.195Z" fill="#F5CFA2" fill-opacity="0.02"/>
</svg>
