<svg width="191" height="198" viewBox="0 0 191 198" fill="none" xmlns="http://www.w3.org/2000/svg">
<path d="M27.1335 60.1702C27.6087 57.8423 29.6565 56.1702 32.0325 56.1702H158.968C161.343 56.1702 163.391 57.8423 163.866 60.1702L190.775 192C191.408 195.099 189.04 198 185.876 198H5.12368C1.96038 198 -0.407941 195.099 0.224702 192L27.1335 60.1702Z" fill="#085328"/>
<path fill-rule="evenodd" clip-rule="evenodd" d="M40.3131 50.7052C39.7937 53.6142 42.1194 56.1702 45.0745 56.1702H145.926C148.881 56.1702 151.206 53.6142 150.687 50.7052C145.524 21.7858 122.778 0 95.5 0C68.2217 0 45.4757 21.7858 40.3131 50.7052ZM61.4199 50.7282C60.7625 53.6092 63.0977 56.1702 66.0527 56.1702H124.947C127.902 56.1702 130.237 53.6092 129.58 50.7282C125.688 33.6719 111.906 21.0638 95.5 21.0638C79.0943 21.0638 65.3116 33.6719 61.4199 50.7282Z" fill="#085328"/>
</svg>
