<svg width="402" height="408" viewBox="0 0 402 408" fill="none" xmlns="http://www.w3.org/2000/svg">
<ellipse cx="201" cy="204" rx="201" ry="204" fill="#C8EADA"/>
<path d="M392 204C392 311.283 306.347 398 201 398C95.6528 398 10 311.283 10 204C10 96.7166 95.6528 10 201 10C306.347 10 392 96.7166 392 204Z" stroke="#085328" stroke-opacity="0.74" stroke-width="20"/>
<path d="M132.134 144.17C132.609 141.842 134.657 140.17 137.033 140.17H263.967C266.343 140.17 268.391 141.842 268.866 144.17L295.775 276C296.408 279.099 294.04 282 290.876 282H110.124C106.96 282 104.592 279.099 105.225 276L132.134 144.17Z" fill="#085328"/>
<path fill-rule="evenodd" clip-rule="evenodd" d="M145.313 134.705C144.794 137.614 147.119 140.17 150.074 140.17H250.926C253.881 140.17 256.206 137.614 255.687 134.705C250.524 105.786 227.778 84 200.5 84C173.222 84 150.476 105.786 145.313 134.705ZM166.42 134.728C165.763 137.609 168.098 140.17 171.053 140.17H229.947C232.902 140.17 235.237 137.609 234.58 134.728C230.688 117.672 216.906 105.064 200.5 105.064C184.094 105.064 170.312 117.672 166.42 134.728Z" fill="#085328"/>
</svg>
